<?xml version="1.0" encoding="UTF-8" standalone="no"?>
<!DOCTYPE svg PUBLIC "-//W3C//DTD SVG 1.1//EN" "http://www.w3.org/Graphics/SVG/1.1/DTD/svg11.dtd">
<svg width="100%" height="100%" viewBox="0 0 472 282" version="1.1" xmlns="http://www.w3.org/2000/svg" xmlns:xlink="http://www.w3.org/1999/xlink" xml:space="preserve" xmlns:serif="http://www.serif.com/" style="fill-rule:evenodd;clip-rule:evenodd;stroke-linejoin:round;stroke-miterlimit:2;">
    <g transform="matrix(1,0,0,1,-19.0624,-146.844)">
        <g transform="matrix(1,0,0,1,-0.00160489,-32)">
            <path d="M208,288C199.223,288 192,295.223 192,304C192,312.777 199.223,320 208,320C216.777,320 224,312.777 224,304C224,295.223 216.777,288 208,288ZM144,352C135.223,352 128,359.223 128,368C128,376.777 135.223,384 144,384C152.777,384 160,376.777 160,368C160,359.223 152.777,352 144,352ZM489.169,411.534C484.803,377.1 478.303,319.421 422.909,256.332C357.963,182.364 278.582,177.729 262.514,179.005C246.215,180.299 128.529,169.364 50.922,314.855C39.659,335.97 22.792,375.517 19.522,413.701C17.447,437.932 21,459.326 60.5,459.326L451.744,460.356C491.244,460.356 492.01,433.932 489.169,411.534ZM451.51,432L60.5,432C51.93,432 47.18,421.55 48.17,413.62C62.89,296.4 152.24,208 256,208C359.76,208 449.12,296.4 463.84,413.62C464.84,421.62 459.93,432 451.51,432Z" style="fill:rgb(254,44,85);fill-rule:nonzero;"/>
        </g>
    </g>
</svg>
