<?xml version="1.0" encoding="UTF-8" standalone="no"?>
<!DOCTYPE svg PUBLIC "-//W3C//DTD SVG 1.1//EN" "http://www.w3.org/Graphics/SVG/1.1/DTD/svg11.dtd">
<svg width="100%" height="100%" viewBox="0 0 512 448" version="1.1" xmlns="http://www.w3.org/2000/svg" xmlns:xlink="http://www.w3.org/1999/xlink" xml:space="preserve" xmlns:serif="http://www.serif.com/" style="fill-rule:evenodd;clip-rule:evenodd;stroke-linejoin:round;stroke-miterlimit:2;">
    <g transform="matrix(1,0,0,1,-0.00160489,-32)">
        <path d="M208,288C199.223,288 192,295.223 192,304C192,312.777 199.223,320 208,320C216.777,320 224,312.777 224,304C224,295.223 216.777,288 208,288ZM144,352C135.223,352 128,359.223 128,368C128,376.777 135.223,384 144,384C152.777,384 160,376.777 160,368C160,359.223 152.777,352 144,352ZM511.45,407.64C508.725,386.478 503.823,365.654 496.82,345.5C499.565,338.385 500.981,330.826 501,323.2C501,313.81 501.62,304.95 504.3,295.61C509.62,277.16 516.85,252.13 507.3,226.03C494.3,190.36 459.38,177.25 447.39,167.89C442.13,151.55 440.97,112.79 412.19,89.3C385.14,67.22 356.08,74.13 330.44,73.9C316.57,62.73 293.75,32 257.42,32C219.76,32 192.75,64.84 181.54,73.86C164.77,74.01 128.82,65.56 99.79,89.26C70.76,112.96 70,151.77 64.37,168C51.82,177.54 17.55,190.64 4.66,226C-4.88,252.06 2.34,277.08 7.66,295.35C10.36,304.75 11.01,313.57 11.01,323.12C11.032,330.759 12.462,338.33 15.23,345.45C8.202,365.617 3.283,386.459 0.55,407.64C-3.84,442.59 21,480 60.5,480L451.5,480C491,480 515.86,442.66 511.46,407.64L511.45,407.64ZM451.51,432L60.5,432C51.93,432 47.18,421.55 48.17,413.62C62.89,296.4 152.24,208 256,208C359.76,208 449.12,296.4 463.84,413.62C464.84,421.62 459.93,432 451.51,432Z" style="fill-rule:nonzero;"/>
    </g>
</svg>
