<?xml version="1.0" encoding="UTF-8" standalone="no"?>
<!DOCTYPE svg PUBLIC "-//W3C//DTD SVG 1.1//EN" "http://www.w3.org/Graphics/SVG/1.1/DTD/svg11.dtd">
<svg width="100%" height="100%" viewBox="0 0 18 14" version="1.1" xmlns="http://www.w3.org/2000/svg" xmlns:xlink="http://www.w3.org/1999/xlink" xml:space="preserve" xmlns:serif="http://www.serif.com/" style="fill-rule:evenodd;clip-rule:evenodd;stroke-linejoin:round;stroke-miterlimit:2;">
    <g transform="matrix(1,0,0,1,-3,-5)">
        <path d="M3,5L3,19L21,19L21,5L3,5ZM7,7L7,9L5,9L5,7L7,7ZM5,13L5,11L7,11L7,13L5,13ZM5,15L7,15L7,17L5,17L5,15ZM19,17L9,17L9,15L19,15L19,17ZM19,13L9,13L9,11L19,11L19,13ZM19,9L9,9L9,7L19,7L19,9Z" style="fill:rgb(254,44,85);fill-rule:nonzero;"/>
    </g>
</svg>
